<?xml version="1.0" encoding="utf-8"?>
<!-- Generator: Adobe Illustrator 26.2.1, SVG Export Plug-In . SVG Version: 6.00 Build 0)  -->
<svg version="1.1" id="Layer_1" xmlns="http://www.w3.org/2000/svg" xmlns:xlink="http://www.w3.org/1999/xlink" x="0px" y="0px"
	 viewBox="0 0 432 432" style="enable-background:new 0 0 432 432;" xml:space="preserve">
<style type="text/css">
	.st0{fill:#4AA851;}
	.st1{fill:#B8D637;}
</style>
<g>
	<g>
		<path class="st0" d="M195.3,297.6c-22.6,0-42.9-9.1-57.7-23.9c-14.8-14.8-23.9-35.1-23.9-57.7c0-22.6,9.1-42.9,23.9-57.7
			c14.9-14.8,35.1-23.9,57.7-23.9c18.8,0,36,6.3,49.8,17h66.3c-6-10.8-13.5-20.7-22.1-29.3c-24-24-57.4-38.9-94-38.9
			c-36.6,0-70,14.9-94,38.9c-24,24-38.9,57.4-38.9,94c0,36.6,14.9,70,38.9,94c24,24,57.3,38.9,93.9,38.9c0,0,0,0,0,0
			c36.6,0,70-14.9,94-38.9c8.6-8.6,16.1-18.5,22.1-29.3h-66.3C231.3,291.3,214.1,297.6,195.3,297.6z"/>
	</g>
	<g>
		<path class="st1" d="M150.9,264.1v-96.4h26c18.8,0,27.2,14.3,27.2,30.5s-8.4,30.5-27.2,30.5h-7.8v35.4H150.9z M185.6,198.2
			c0-8.8-3.8-14.4-10.5-14.4h-5.9v28.9h5.9C181.8,212.7,185.6,206.9,185.6,198.2z"/>
		<path class="st1" d="M211,264.1v-96.4h18.2v80.3h24v16H211z"/>
		<path class="st1" d="M257.2,236.2v-68.5h18.2v69.3c0,9.4,3.6,12.7,9.2,12.7c5.5,0,9.2-3.3,9.2-12.7v-69.3h18.2v68.5
			c0,20.7-13.1,29.6-27.4,29.6C270.4,265.8,257.2,256.9,257.2,236.2z"/>
		<path class="st1" d="M317.8,256.3l7.9-14.3c3.9,5.1,10.1,7.7,15.7,7.7c5.8,0,9.7-4.3,9.7-10.5c0-7.5-5.6-11.6-12.1-16.3
			c-8.5-6.1-18.5-13-18.5-29.8c0-14.4,9.8-26.9,26.9-26.9c8.1,0,15.6,2.7,20.9,7.8l-7.1,14c-3.8-3.9-8.2-5.6-13.3-5.6
			c-5.2,0-9,3.9-9,9.7c0,6.4,5.3,10.5,11.6,15.2c8.8,6.4,19.1,14,19.1,30.8c0,16.2-10.5,27.9-27,27.9
			C332.1,265.8,324,262.5,317.8,256.3z"/>
	</g>
</g>
</svg>
