<?xml version="1.0" encoding="utf-8"?>
<!-- Generator: Adobe Illustrator 24.2.0, SVG Export Plug-In . SVG Version: 6.00 Build 0)  -->
<svg version="1.1" id="Layer_1" xmlns="http://www.w3.org/2000/svg" xmlns:xlink="http://www.w3.org/1999/xlink" x="0px" y="0px"
	 viewBox="0 0 16 16" style="enable-background:new 0 0 16 16;" xml:space="preserve">
<style type="text/css">
	.st0{fill:#6EC069;}
	.st1{fill:#242829;}
</style>
<g>
	<g id="XMLID_3_">
		<g>
			<path class="st0" d="M7.9,4.4c1.2-0.1,2,0.9,2,1.6C8.6,6,7.4,6,6.1,6C6,5.3,7,4.5,7.9,4.4z"/>
			<path class="st0" d="M8.8,1.7c0,0.2,0.1,0.4,0.1,0.7c0,0.5,0.8,0.9,1.2,0.5c0.2-0.2,0.4-0.3,0.6-0.4c0.1-0.1,0.2-0.1,0.4,0
				c0.3,0.3,0.5,0.5,0.8,0.8c0.1,0.1,0.1,0.2,0,0.4c-0.1,0.2-0.3,0.4-0.4,0.6c-0.3,0.4,0,1.1,0.5,1.1c0.2,0,0.5,0.1,0.7,0.1
				c0.2,0,0.3,0.1,0.3,0.3c0,0,0,0.1,0,0.1c-0.9,0-1.7,0-2.6,0C10.1,4.7,8.9,4,8,4C7,4,5.9,4.7,5.7,6C4.8,6,4,6,3.1,6
				c0-0.1,0-0.1,0-0.2c0-0.2,0.1-0.2,0.2-0.3c0.3,0,0.5-0.1,0.8-0.1c0.5-0.1,0.7-0.8,0.5-1.1C4.4,4.1,4.3,3.9,4.1,3.6
				C4,3.5,4,3.4,4.1,3.3C4.4,3,4.6,2.8,4.9,2.5c0.1-0.1,0.2-0.1,0.4,0c0.2,0.1,0.4,0.3,0.6,0.4C6.2,3.1,6.6,3,6.8,2.8
				C7,2.5,7.1,2.2,7.1,1.9c0-0.1,0-0.2,0.1-0.3c0-0.1,0.1-0.2,0.2-0.2c0.4,0,0.8,0,1.2,0C8.7,1.4,8.8,1.5,8.8,1.7z"/>
			<path class="st1" d="M8,7.8c1.7,0,3.5,0,5.2,0c0.1,0,0.1,0,0.2,0c0.4,0,0.7-0.4,0.6-0.9c-0.1-0.3-0.4-0.6-0.8-0.6
				c-3.5,0-7.1,0-10.6,0c0,0-0.1,0-0.1,0C2.1,6.4,1.8,6.9,2,7.3c0.1,0.3,0.4,0.5,0.7,0.5C4.5,7.8,6.2,7.8,8,7.8z M10.2,2.9
				C9.8,3.2,9,2.9,8.9,2.4c0-0.2-0.1-0.5-0.1-0.7c0-0.2-0.1-0.2-0.2-0.2c-0.4,0-0.8,0-1.2,0c-0.1,0-0.2,0.1-0.2,0.2
				c0,0.1,0,0.2-0.1,0.3C7.1,2.2,7,2.5,6.8,2.8C6.6,3,6.2,3.1,5.9,2.9C5.7,2.7,5.5,2.6,5.3,2.5C5.1,2.4,5,2.4,4.9,2.5
				C4.6,2.8,4.4,3,4.1,3.3C4,3.4,4,3.5,4.1,3.6c0.1,0.2,0.3,0.4,0.4,0.6c0.3,0.4,0,1.1-0.5,1.1c-0.3,0-0.5,0.1-0.8,0.1
				c-0.2,0-0.2,0.1-0.2,0.3c0,0.1,0,0.1,0,0.2C4,6,4.8,6,5.7,6C5.9,4.7,7,4,8,4c1,0,2.1,0.6,2.3,2c0.9,0,1.7,0,2.6,0
				c0-0.1,0-0.1,0-0.1c0-0.2,0-0.3-0.3-0.3c-0.2,0-0.5-0.1-0.7-0.1c-0.5,0-0.8-0.8-0.5-1.1c0.2-0.2,0.3-0.4,0.4-0.6
				c0.1-0.2,0.1-0.2,0-0.4c-0.3-0.3-0.5-0.5-0.8-0.8c-0.1-0.1-0.2-0.1-0.4,0C10.5,2.6,10.3,2.7,10.2,2.9z M9.9,6
				c-0.1-0.7-0.8-1.7-2-1.6C7,4.5,6,5.3,6.1,6C7.4,6,8.6,6,9.9,6z M9.3,11.8c0.9-1,1.7-1.9,2.6-2.9c0.2-0.2,0.4-0.5,0.6-0.7
				c-3,0-6,0-9,0c0,0.1,0.1,0.1,0.1,0.1c1,1.1,2,2.2,3.1,3.3C6.9,11.9,7,12.1,7,12.3c0,0.6,0,1.2,0,1.8c0,0.3,0.3,0.5,0.6,0.3
				C8,14.3,8.4,14,8.8,13.8c0.2-0.1,0.2-0.2,0.2-0.4c0-0.3,0-0.6,0-1C9.1,12.2,9.1,12,9.3,11.8z M9.6,12c-0.1,0.1-0.2,0.3-0.2,0.4
				c0,0.3,0,0.6,0,1c0,0.3-0.1,0.5-0.4,0.7c-0.4,0.2-0.9,0.5-1.4,0.7c-0.5,0.3-1.1-0.1-1.1-0.7c0-0.6,0-1.2,0-1.9
				c0-0.1,0-0.3-0.1-0.4c-1.1-1.2-2.2-2.4-3.4-3.6C3,8.2,2.9,8.2,2.8,8.2c-0.3,0-0.5,0-0.7-0.2C1.7,7.8,1.5,7.3,1.6,6.8
				C1.7,6.4,2.1,6,2.6,6c0,0,0.1,0,0.1,0c0-0.1,0-0.2,0-0.2c0-0.3,0.2-0.5,0.5-0.6C3.5,5.1,3.7,5.1,4,5c0.3,0,0.4-0.3,0.2-0.6
				C4.1,4.3,3.9,4.1,3.8,3.8C3.6,3.6,3.6,3.3,3.9,3c0.3-0.3,0.5-0.5,0.8-0.8C4.9,2,5.2,1.9,5.5,2.1c0.2,0.1,0.4,0.3,0.6,0.4
				c0.2,0.1,0.3,0.1,0.4-0.1C6.7,2.4,6.7,2.2,6.7,2c0-0.1,0-0.3,0.1-0.4c0.1-0.3,0.3-0.4,0.6-0.5c0.4,0,0.8,0,1.2,0
				c0.3,0,0.5,0.2,0.6,0.5C9.2,1.8,9.3,2,9.3,2.3c0.1,0.3,0.3,0.5,0.6,0.3c0.2-0.1,0.4-0.3,0.6-0.4c0.3-0.2,0.6-0.2,0.8,0.1
				c0.3,0.3,0.5,0.5,0.8,0.8c0.2,0.2,0.3,0.5,0.1,0.8c-0.1,0.2-0.3,0.4-0.4,0.6C11.6,4.7,11.8,5,12,5c0.2,0,0.5,0.1,0.7,0.1
				c0.3,0.1,0.5,0.3,0.5,0.6c0,0.1,0,0.1,0,0.2c0.1,0,0.2,0,0.3,0c0.5,0.1,0.9,0.6,0.9,1.1c-0.1,0.6-0.5,1-1,1
				c-0.3,0-0.5,0.1-0.7,0.3C11.7,9.7,10.7,10.9,9.6,12z"/>
		</g>
		<g>
		</g>
	</g>
</g>
</svg>
