<?xml version="1.0" encoding="utf-8"?>
<!-- Generator: Adobe Illustrator 24.2.0, SVG Export Plug-In . SVG Version: 6.00 Build 0)  -->
<svg version="1.1" id="Layer_1" xmlns="http://www.w3.org/2000/svg" xmlns:xlink="http://www.w3.org/1999/xlink" x="0px" y="0px"
	 viewBox="0 0 18 18" style="enable-background:new 0 0 18 18;" xml:space="preserve">
<style type="text/css">
	.st0{opacity:0.5;}
	.st1{fill:#CCCCCC;}
	.st2{fill:#404040;}
	
		.st3{fill:url(#SVGID_1_);stroke:#404040;stroke-width:1.7563;stroke-linecap:round;stroke-linejoin:round;stroke-miterlimit:3.8657;}
	
		.st4{fill:url(#SVGID_2_);stroke:#404040;stroke-width:0.2195;stroke-linecap:round;stroke-linejoin:round;stroke-miterlimit:3.8657;}
</style>
<g class="st0">
	<path class="st1" d="M6.5,1.6h4.9v4.9H6.5V1.6z"/>
	<path class="st2" d="M1.6,1.6h4.9v4.9H1.6V1.6z M6.5,6.5h4.9v4.9H6.5V6.5z M11.5,1.6h4.9v4.9h-4.9V1.6z"/>
	<path class="st1" d="M1.6,6.5h4.9v4.9H1.6V6.5z M11.5,6.5h4.9v4.9h-4.9V6.5z M6.5,11.5h4.9v4.9H6.5V11.5z"/>
	<path class="st2" d="M1.6,11.5h4.9v4.9H1.6V11.5z"/>
</g>
<g>
	
		<linearGradient id="SVGID_1_" gradientUnits="userSpaceOnUse" x1="5" y1="8.561" x2="16.8686" y2="8.561" gradientTransform="matrix(1 0 0 -1 0 19.2756)">
		<stop  offset="0" style="stop-color:#12FF04"/>
		<stop  offset="1" style="stop-color:#D4F8D2"/>
	</linearGradient>
	<path class="st3" d="M16.9,15.7c0,0.2-0.1,0.4-0.3,0.6c-0.4,0.4-1,0.3-1.4-0.1c-0.9-0.8-1.7-1.7-2.5-2.5l-0.1-0.1
		c-0.3,0.2-0.6,0.3-0.9,0.5c-1.3,0.5-2.6,0.5-3.9-0.1c-1-0.4-1.7-1.1-2.2-2C5.1,11.1,5,10.2,5,9.3c0.1-1.2,0.6-2.2,1.4-3
		S8.1,5,9.2,4.9c1-0.1,1.9,0.1,2.8,0.5c0.7,0.4,1.3,0.9,1.8,1.7c0.5,0.7,0.7,1.5,0.8,2.4c0,0.9-0.2,1.8-0.7,2.6
		c-0.1,0.1-0.1,0.1,0,0.2c0.8,0.8,1.6,1.6,2.5,2.5c0.2,0.2,0.4,0.4,0.4,0.7C16.9,15.5,16.9,15.6,16.9,15.7z M13,9.6
		c0-1.8-1.5-3.2-3.2-3.2C8,6.4,6.6,7.8,6.6,9.6s1.4,3.2,3.2,3.2C11.6,12.9,13,11.4,13,9.6z"/>
</g>
<g>
	
		<linearGradient id="SVGID_2_" gradientUnits="userSpaceOnUse" x1="5" y1="8.561" x2="16.8686" y2="8.561" gradientTransform="matrix(1 0 0 -1 0 19.2756)">
		<stop  offset="0" style="stop-color:#12FF04"/>
		<stop  offset="1" style="stop-color:#D4F8D2"/>
	</linearGradient>
	<path class="st4" d="M16.9,15.7c0,0.2-0.1,0.4-0.3,0.6c-0.4,0.4-1,0.3-1.4-0.1c-0.9-0.8-1.7-1.7-2.5-2.5l-0.1-0.1
		c-0.3,0.2-0.6,0.3-0.9,0.5c-1.3,0.5-2.6,0.5-3.9-0.1c-1-0.4-1.7-1.1-2.2-2C5.1,11.1,5,10.2,5,9.3c0.1-1.2,0.6-2.2,1.4-3
		S8.1,5,9.2,4.9c1-0.1,1.9,0.1,2.8,0.5c0.7,0.4,1.3,0.9,1.8,1.7c0.5,0.7,0.7,1.5,0.8,2.4c0,0.9-0.2,1.8-0.7,2.6
		c-0.1,0.1-0.1,0.1,0,0.2c0.8,0.8,1.6,1.6,2.5,2.5c0.2,0.2,0.4,0.4,0.4,0.7C16.9,15.5,16.9,15.6,16.9,15.7z M13,9.6
		c0-1.8-1.5-3.2-3.2-3.2C8,6.4,6.6,7.8,6.6,9.6s1.4,3.2,3.2,3.2C11.6,12.9,13,11.4,13,9.6z"/>
</g>
</svg>
