<?xml version="1.0" encoding="utf-8"?>
<!-- Generator: Adobe Illustrator 24.2.0, SVG Export Plug-In . SVG Version: 6.00 Build 0)  -->
<svg version="1.1" id="Layer_1" xmlns="http://www.w3.org/2000/svg" xmlns:xlink="http://www.w3.org/1999/xlink" x="0px" y="0px"
	 viewBox="0 0 16 16" style="enable-background:new 0 0 16 16;" xml:space="preserve">
<style type="text/css">
	.st0{fill:#CCCCCC;}
	.st1{fill:#404040;}
	
		.st2{fill-rule:evenodd;clip-rule:evenodd;fill:url(#SVGID_1_);stroke:#404040;stroke-width:0.4015;stroke-linecap:round;stroke-linejoin:round;stroke-miterlimit:3.8657;}
</style>
<g>
	<path class="st0" d="M5.8,1.5h4.3v4.3H5.8L5.8,1.5z"/>
	<path class="st1" d="M1.5,1.5h4.3v4.3H1.5V1.5z M5.8,5.8h4.3v4.3H5.8L5.8,5.8z M10.2,1.5h4.3v4.3h-4.3V1.5z"/>
	<path class="st0" d="M1.5,5.8h4.3v4.3H1.5V5.8z M10.2,5.8h4.3v4.3h-4.3V5.8z M5.8,10.2h4.3v4.3H5.8V10.2z"/>
	<path class="st1" d="M1.5,10.2h4.3v4.3H1.5V10.2z"/>
</g>
<g>
	
		<linearGradient id="SVGID_1_" gradientUnits="userSpaceOnUse" x1="245.5853" y1="-134.5834" x2="251.2059" y2="-114.5098" gradientTransform="matrix(0.8 0 0 -0.8 -190.2 -91.8)">
		<stop  offset="0" style="stop-color:#12FF04"/>
		<stop  offset="1" style="stop-color:#D4F8D2"/>
	</linearGradient>
	<path class="st2" d="M2.4,7.1L6.2,11l9-4.5l-10.3,9L2.4,7.1z"/>
</g>
</svg>
