<?xml version="1.0" encoding="UTF-8"?>
<!DOCTYPE svg PUBLIC "-//W3C//DTD SVG 1.1//EN" "http://www.w3.org/Graphics/SVG/1.1/DTD/svg11.dtd">
<svg xmlns="http://www.w3.org/2000/svg" version="1.1" width="16px" height="16px" style="shape-rendering:geometricPrecision; text-rendering:geometricPrecision; image-rendering:optimizeQuality; fill-rule:evenodd; clip-rule:evenodd" xmlns:xlink="http://www.w3.org/1999/xlink">
<g><path style="opacity:1" fill="#b9d63c" d="M 0.5,0.5 C 5.11909,1.3136 9.78575,1.64693 14.5,1.5C 14.5,5.5 14.5,9.5 14.5,13.5C 9.83333,13.5 5.16667,13.5 0.5,13.5C 0.5,9.16667 0.5,4.83333 0.5,0.5 Z"/></g>
<g><path style="opacity:1" fill="#dfdfdf" d="M 6.5,2.5 C 8.83333,2.5 11.1667,2.5 13.5,2.5C 13.5,5.83333 13.5,9.16667 13.5,12.5C 11.1667,12.5 8.83333,12.5 6.5,12.5C 6.5,9.16667 6.5,5.83333 6.5,2.5 Z"/></g>
<g><path style="opacity:1" fill="#bbc87e" d="M 6.5,2.5 C 6.5,5.83333 6.5,9.16667 6.5,12.5C 4.83333,12.5 3.16667,12.5 1.5,12.5C 1.5,9.16667 1.5,5.83333 1.5,2.5C 3.16667,2.5 4.83333,2.5 6.5,2.5 Z"/></g>
</svg>
