<?xml version="1.0" encoding="utf-8"?>
<!-- Generator: Adobe Illustrator 24.2.0, SVG Export Plug-In . SVG Version: 6.00 Build 0)  -->
<svg version="1.1" xmlns="http://www.w3.org/2000/svg" xmlns:xlink="http://www.w3.org/1999/xlink" x="0px" y="0px"
	 viewBox="0 0 16 16" style="enable-background:new 0 0 16 16;" xml:space="preserve">
<style type="text/css">
	.st0{fill-rule:evenodd;clip-rule:evenodd;fill:url(#SVGID_1_);stroke:#339933;}
	.st1{fill-rule:evenodd;clip-rule:evenodd;fill:#4AA851;stroke:#339933;}
	.st2{fill:#9A9A9A;}
	.st3{fill:#E6E6E6;}
</style>
<g id="Layer_1">
	<g>
		
			<linearGradient id="SVGID_1_" gradientUnits="userSpaceOnUse" x1="3.5" y1="10" x2="11.5" y2="10" gradientTransform="matrix(1 0 0 -1 0 18)">
			<stop  offset="0" style="stop-color:#4AA851"/>
			<stop  offset="1" style="stop-color:#B8D637"/>
		</linearGradient>
		<path class="st0" d="M14.5,13.5H2.7c-0.6,0-1.1-0.8-1.2-1.4V2.5h13V13.5z"/>
		<path class="st1" d="M3.8,2.2c-0.6-0.6-1.7-0.6-2.3,0v8.9c0.6-0.6,1.7-0.6,2.3,0V2.2z"/>
	</g>
</g>
<g id="Layer_3">
	<path class="st2" d="M13.9,15.5h-3c-0.9,0-1.6-0.7-1.6-1.6v-3c0-0.9,0.7-1.6,1.6-1.6h3c0.9,0,1.6,0.7,1.6,1.6v3
		C15.6,14.8,14.8,15.5,13.9,15.5z"/>
	<g id="Layer_2">
		<g>
			<path class="st3" d="M11.9,12.9h-1.1v-1.1h1.1v-1.1H13v1.1h1.1v1.1H13V14h-1.1V12.9z"/>
		</g>
	</g>
</g>
</svg>
