<?xml version="1.0" ?><!DOCTYPE svg  PUBLIC '-//W3C//DTD SVG 1.1//EN'  'http://www.w3.org/Graphics/SVG/1.1/DTD/svg11.dtd'><svg enable-background="new 0 0 64 64" height="64px" id="Layer_1" version="1.1" viewBox="0 0 64 64" width="64px" xml:space="preserve" xmlns="http://www.w3.org/2000/svg" xmlns:xlink="http://www.w3.org/1999/xlink"><g id="analysis"><g><g><g><path d="M11,17v43h49V17H11z M59,59H12V27h47V59z M59,26H12v-8h47V26z" fill="#37474F"/></g></g><g><g><path d="M36,7v4h14V7H36z M49,10H37V8h12V10z" fill="#37474F"/></g><g><path d="M19,7v4h4V7H19z M22,10h-2V8h2V10z" fill="#37474F"/></g><g><path d="M13,7v4h4V7H13z M16,10h-2V8h2V10z" fill="#37474F"/></g><g><path d="M7,7v4h4V7H7z M10,10H8V8h2V10z" fill="#37474F"/></g></g><g><g><path d="M43,20v4h14v-4H43z M56,23H44v-2h12V23z" fill="#37474F"/></g><g><path d="M26,20v4h4v-4H26z M29,23h-2v-2h2V23z" fill="#37474F"/></g><g><path d="M20,20v4h4v-4H20z M23,23h-2v-2h2V23z" fill="#37474F"/></g><g><path d="M14,20v4h4v-4H14z M17,23h-2v-2h2V23z" fill="#37474F"/></g></g></g><g><g><path d="M53.866,33.062l0.732-1.24L54,29.5l-2.322,0.598l-0.732,1.24l1.637-0.422l-6.258,10.598     C45.972,41.198,45.51,41,45,41c-0.413,0-0.797,0.126-1.116,0.341l-3.362-4.059C40.816,36.934,41,36.49,41,36c0-1.103-0.897-2-2-2     s-2,0.897-2,2c0,0.495,0.187,0.942,0.486,1.292l-5.074,8.752C32.279,46.016,32.141,46,32,46c-0.413,0-0.797,0.126-1.117,0.341     l-3.961-2.82C26.968,43.354,27,43.182,27,43c0-1.103-0.897-2-2-2s-2,0.897-2,2c0,0.273,0.056,0.534,0.155,0.771l-5.649,8.301     C17.344,52.03,17.176,52,17,52c-1.103,0-2,0.897-2,2s0.897,2,2,2s2-0.897,2-2c0-0.565-0.238-1.074-0.617-1.438l5.422-7.967     C24.14,44.846,24.55,45,25,45c0.559,0,1.064-0.232,1.427-0.603l3.797,2.703C30.085,47.371,30,47.674,30,48c0,1.103,0.897,2,2,2     s2-0.897,2-2c0-0.602-0.273-1.137-0.695-1.503l5.002-8.627C38.524,37.95,38.755,38,39,38c0.25,0,0.487-0.051,0.708-0.136     l3.513,4.242C43.084,42.376,43,42.677,43,43c0,1.103,0.897,2,2,2s2-0.897,2-2c0-0.184-0.033-0.358-0.08-0.528l6.524-11.048     L53.866,33.062z M17,55c-0.551,0-1-0.449-1-1s0.449-1,1-1s1,0.449,1,1S17.551,55,17,55z M25,44c-0.551,0-1-0.449-1-1s0.449-1,1-1     s1,0.449,1,1S25.551,44,25,44z M32,49c-0.551,0-1-0.449-1-1s0.449-1,1-1s1,0.449,1,1S32.551,49,32,49z M38,36     c0-0.551,0.449-1,1-1s1,0.449,1,1s-0.449,1-1,1S38,36.551,38,36z M45,44c-0.551,0-1-0.449-1-1s0.449-1,1-1s1,0.449,1,1     S45.551,44,45,44z" fill="#37474F"/></g></g><path d="M10,46H5V14h47v2h1V4H4v43h6V46z M5,5h47v8H5V5z" fill="#37474F"/></g></svg>