<?xml version="1.0" encoding="utf-8"?>
<!-- Generator: Adobe Illustrator 24.2.0, SVG Export Plug-In . SVG Version: 6.00 Build 0)  -->
<svg version="1.1" id="Layer_1" xmlns="http://www.w3.org/2000/svg" xmlns:xlink="http://www.w3.org/1999/xlink" x="0px" y="0px"
	 viewBox="0 0 24 24" style="enable-background:new 0 0 24 24;" xml:space="preserve">
<style type="text/css">
	.st0{fill-rule:evenodd;clip-rule:evenodd;fill:#FFFFFF;stroke:#727272;stroke-linejoin:round;}
	.st1{fill-rule:evenodd;clip-rule:evenodd;fill:#F0F0F0;stroke:#727272;stroke-linejoin:round;}
	.st2{fill:#28BF1F;fill-opacity:0.44;}
	.st3{fill-rule:evenodd;clip-rule:evenodd;fill:#F0F3F2;}
	
		.st4{fill-rule:evenodd;clip-rule:evenodd;fill:url(#SVGID_1_);stroke:#404040;stroke-width:0.7515;stroke-linecap:round;stroke-linejoin:round;stroke-miterlimit:3.8657;}
	.st5{opacity:0.231;fill:url(#SVGID_2_);enable-background:new    ;}
	
		.st6{fill:url(#SVGID_3_);stroke:#404040;stroke-width:0.6344;stroke-linecap:round;stroke-linejoin:round;stroke-miterlimit:3.8657;}
	.st7{fill:#FFFFFF;fill-opacity:0.578;stroke:#404040;stroke-width:0.976;}
</style>
<path class="st0" d="M1.5,21.5h21v-14l-5-5h-16V21.5z"/>
<path class="st1" d="M22.5,7.5h-5v-5L22.5,7.5z"/>
<path class="st2" d="M3,4h14v1H3V4z M3,19h18v1H3V19z"/>
<path class="st1" d="M22.5,7.5h-5v-5L22.5,7.5z"/>
<path class="st2" d="M21,19V8h-1v11H21z"/>
<path class="st3" d="M8.4,10.4C8.4,10.4,8.4,10.4,8.4,10.4l2.6,1.9c0.3,0.3,0.8,0.2,1.2-0.1c0.4-0.2,0.8-0.6,1.1-1
	c0.3-0.5,0.5-1,0.6-1.4c0.1-0.4,0-0.9-0.3-1.1L11,6.7c0,0,0,0,0,0c0,0,0,0,0,0c1.2-0.1,2.6,0.2,3.5,0.8c1.2,0.9,1.6,2.4,1.2,3.9
	c-0.4,1.4-1.9,2.5-3.1,2.7c-0.8,0.1-1.6-0.1-2.3-0.6C9.4,12.8,8.7,11.6,8.4,10.4L8.4,10.4z"/>
<path class="st2" d="M3,19V5h1v14H3z"/>
<g>
	
		<linearGradient id="SVGID_1_" gradientUnits="userSpaceOnUse" x1="262.2332" y1="-214.5443" x2="285.3565" y2="-227.8936" gradientTransform="matrix(4.476333e-02 0.8542 -0.8499 4.454503e-02 -183.1163 -201.8046)">
		<stop  offset="0" style="stop-color:#D3D7CF"/>
		<stop  offset="0.183" style="stop-color:#BABDB6"/>
		<stop  offset="0.319" style="stop-color:#FFFFFF"/>
		<stop  offset="0.876" style="stop-color:#BABDB6"/>
		<stop  offset="1" style="stop-color:#EEEEEC"/>
	</linearGradient>
	<path class="st4" d="M5.9,11.4c-0.1-0.6,0.4-0.3,0.6-0.1c0.8,0.4,1.7,0.8,2.5,1.2c0.6,0.1,1-0.4,1.3-0.8c0.4-0.6,0.8-1.4,0.5-2.2
		C10.7,9.1,10.3,9,9.9,8.8C9.2,8.4,8.4,8,7.6,7.6c0-0.4,0.6-0.4,0.9-0.5c1.3-0.2,2.8,0,3.8,0.9c0.8,0.8,1.2,2,1,3.1
		c0.4,0.9,0.9,1.8,1.6,2.5l-2,2.1c-0.7-0.6-1.4-1.1-2.3-1.4c-1.1,0.4-2.4,0-3.2-0.8C6.8,13,6.2,12.2,5.9,11.4L5.9,11.4z"/>
	
		<linearGradient id="SVGID_2_" gradientUnits="userSpaceOnUse" x1="-562.0588" y1="-639.129" x2="-564.6838" y2="-639.0616" gradientTransform="matrix(-0.2799 0.3113 -0.4053 -0.3665 -399.6366 -41.3148)">
		<stop  offset="0" style="stop-color:#000000"/>
		<stop  offset="1" style="stop-color:#000000;stop-opacity:0"/>
	</linearGradient>
	<path class="st5" d="M14,14.9c-0.2,0.3-0.2,0.7,0,0.9l4.8,4.9c0.3,0.2,0.9-0.1,1.2-0.4c0.2-0.3,0.5-1,0.2-1.2l-5.3-4.3
		C14.7,14.6,14.3,14.6,14,14.9L14,14.9z"/>
	<path class="st3" d="M6.1,11.3C6.2,11.4,6.2,11.3,6.1,11.3l2.7,1.3c0.4,0.2,0.8,0,1.1-0.2c0.3-0.3,0.7-0.6,0.9-1.1
		c0.2-0.5,0.3-1,0.3-1.4c0-0.4-0.1-0.8-0.5-1L8,7.5c0,0,0,0,0,0c0,0,0,0,0,0c1.1-0.3,2.5-0.3,3.4,0.2c1.2,0.6,1.9,2,1.7,3.4
		c-0.2,1.4-1.3,2.7-2.4,3c-0.7,0.2-1.5,0.2-2.2-0.2C7.5,13.5,6.6,12.5,6.1,11.3L6.1,11.3z"/>
	
		<linearGradient id="SVGID_3_" gradientUnits="userSpaceOnUse" x1="-385.8558" y1="-798.5704" x2="-391.3232" y2="-798.5151" gradientTransform="matrix(-0.5538 0.6152 -0.3436 -0.3107 -471.3756 9.2743)">
		<stop  offset="0" style="stop-color:#12FF04"/>
		<stop  offset="1" style="stop-color:#D4F8D2"/>
	</linearGradient>
	<path class="st6" d="M14.8,13.2l8.3,6.8c0.5,0.5,0.3,1.5-0.6,2.4c-0.8,0.9-1.9,1.3-2.4,0.8l-7.6-7.6L14.8,13.2L14.8,13.2z
		 M20.9,20.9c-0.4,0.5-0.4,1.1-0.1,1.4c0.3,0.3,1,0.2,1.4-0.3c0.4-0.5,0.4-1.1,0.1-1.4C22,20.4,21.3,20.5,20.9,20.9L20.9,20.9z"/>
	<path class="st7" d="M13.1,15.6l1.9-1.8l0.3,0.3l-1.9,1.8L13.1,15.6z"/>
</g>
</svg>
