<?xml version="1.0" encoding="UTF-8"?>
<!DOCTYPE svg PUBLIC "-//W3C//DTD SVG 1.1//EN" "http://www.w3.org/Graphics/SVG/1.1/DTD/svg11.dtd">
<svg xmlns="http://www.w3.org/2000/svg" version="1.1" width="29px" height="32px" style="shape-rendering:geometricPrecision; text-rendering:geometricPrecision; image-rendering:optimizeQuality; fill-rule:evenodd; clip-rule:evenodd" xmlns:xlink="http://www.w3.org/1999/xlink">
<g><path style="opacity:1" fill="#8f9693" d="M 16.5,-0.5 C 17.1667,-0.5 17.8333,-0.5 18.5,-0.5C 19.1667,0.5 19.8333,1.5 20.5,2.5C 18.8706,4.06034 17.704,3.72701 17,1.5C 16.5357,2.09442 16.369,2.76109 16.5,3.5C 11.807,1.64019 6.80697,0.973522 1.5,1.5C 6.5,0.833333 11.5,0.166667 16.5,-0.5 Z"/></g>
<g><path style="opacity:1" fill="#c1cbbe" d="M 1.5,1.5 C 6.80697,0.973522 11.807,1.64019 16.5,3.5C 17.5676,4.43448 18.901,4.76781 20.5,4.5C 20.5,8.16667 20.5,11.8333 20.5,15.5C 20.5,15.8333 20.5,16.1667 20.5,16.5C 18.6998,17.4734 16.8665,18.4734 15,19.5C 14.3828,20.4491 14.5494,21.2825 15.5,22C 12.8333,23.6667 12.8333,25.3333 15.5,27C 15.2716,27.3988 14.9382,27.5654 14.5,27.5C 13.8333,27.8333 13.1667,28.1667 12.5,28.5C 9.03808,27.5184 5.37141,27.185 1.5,27.5C 1.5,18.8333 1.5,10.1667 1.5,1.5 Z"/></g>
<g><path style="opacity:1" fill="#3d4a4e" d="M 20.5,2.5 C 21.8333,6.83333 21.8333,11.1667 20.5,15.5C 20.5,11.8333 20.5,8.16667 20.5,4.5C 18.901,4.76781 17.5676,4.43448 16.5,3.5C 16.369,2.76109 16.5357,2.09442 17,1.5C 17.704,3.72701 18.8706,4.06034 20.5,2.5 Z"/></g>
<g><path style="opacity:1" fill="#8cf185" d="M 3.5,6.5 C 7.55461,6.17575 11.5546,6.50909 15.5,7.5C 13.5,7.83333 11.5,8.16667 9.5,8.5C 7.04775,8.46093 5.04775,7.79426 3.5,6.5 Z"/></g>
<g><path style="opacity:1" fill="#616c6e" d="M -0.5,-0.5 C 5.16667,-0.5 10.8333,-0.5 16.5,-0.5C 11.5,0.166667 6.5,0.833333 1.5,1.5C 1.5,10.1667 1.5,18.8333 1.5,27.5C 5.37141,27.185 9.03808,27.5184 12.5,28.5C 8.05885,30.0361 3.72552,29.7028 -0.5,27.5C -0.5,18.1667 -0.5,8.83333 -0.5,-0.5 Z"/></g>
<g><path style="opacity:1" fill="#697474" d="M 3.5,14.5 C 6.57186,14.1826 9.57186,14.5159 12.5,15.5C 11,15.8333 9.5,16.1667 8,16.5C 6.01448,16.4313 4.51448,15.7647 3.5,14.5 Z"/></g>
<g><path style="opacity:1" fill="#9eeb96" d="M 3.5,17.5 C 4.97782,17.238 6.31116,17.5713 7.5,18.5C 6.83333,18.8333 6.16667,19.1667 5.5,19.5C 4.28665,19.2528 3.61998,18.5862 3.5,17.5 Z"/></g>
<g><path style="opacity:1" fill="#576965" d="M 20.5,16.5 C 22.1238,16.3601 23.2904,17.0267 24,18.5C 24.3333,18.1667 24.6667,17.8333 25,17.5C 26.4048,18.7305 27.5714,20.0639 28.5,21.5C 28.5,23.1667 28.5,24.8333 28.5,26.5C 27.1667,26.8333 27.1667,27.1667 28.5,27.5C 28.5,27.8333 28.5,28.1667 28.5,28.5C 26.8869,29.6923 25.2202,30.6923 23.5,31.5C 21.8333,31.5 20.1667,31.5 18.5,31.5C 17.7375,30.7321 16.7375,30.2321 15.5,30C 14.7476,29.3292 14.4142,28.4959 14.5,27.5C 14.9382,27.5654 15.2716,27.3988 15.5,27C 12.8333,25.3333 12.8333,23.6667 15.5,22C 14.5494,21.2825 14.3828,20.4491 15,19.5C 16.8665,18.4734 18.6998,17.4734 20.5,16.5 Z M 19.5,22.5 C 20.5,22.5 21.5,22.5 22.5,22.5C 22.5,23.5 22.5,24.5 22.5,25.5C 21.5,25.5 20.5,25.5 19.5,25.5C 19.5,24.5 19.5,23.5 19.5,22.5 Z"/></g>
<g><path style="opacity:1" fill="#70e16c" d="M 19.5,20.5 C 19.7828,19.7109 20.2828,19.0442 21,18.5C 22.3561,19.3802 23.8561,19.7135 25.5,19.5C 25.2267,21.451 25.8934,22.951 27.5,24C 25.9632,25.1096 25.2965,26.6096 25.5,28.5C 23.549,28.2267 22.049,28.8934 21,30.5C 19.951,28.8934 18.451,28.2267 16.5,28.5C 16.7135,26.8561 16.3802,25.3561 15.5,24C 16.2266,22.6012 16.7266,21.1012 17,19.5C 17.6708,20.2524 18.5041,20.5858 19.5,20.5 Z M 19.5,22.5 C 19.5,23.5 19.5,24.5 19.5,25.5C 20.5,25.5 21.5,25.5 22.5,25.5C 22.5,24.5 22.5,23.5 22.5,22.5C 21.5,22.5 20.5,22.5 19.5,22.5 Z"/></g>
<g><path style="opacity:1" fill="#5a6e67" d="M 19.5,20.5 C 24.4928,20.997 25.4928,23.1637 22.5,27C 17.3823,26.8242 16.3823,24.6576 19.5,20.5 Z M 19.5,22.5 C 19.5,23.5 19.5,24.5 19.5,25.5C 20.5,25.5 21.5,25.5 22.5,25.5C 22.5,24.5 22.5,23.5 22.5,22.5C 21.5,22.5 20.5,22.5 19.5,22.5 Z"/></g>
</svg>
