<?xml version="1.0" encoding="utf-8"?>
<!-- Generator: Adobe Illustrator 24.2.0, SVG Export Plug-In . SVG Version: 6.00 Build 0)  -->
<svg version="1.1" id="Layer_1" xmlns="http://www.w3.org/2000/svg" xmlns:xlink="http://www.w3.org/1999/xlink" x="0px" y="0px"
	 viewBox="0 0 16 16" style="enable-background:new 0 0 16 16;" xml:space="preserve">
<style type="text/css">
	.st0{fill:#242829;}
	.st1{fill:#6EC068;}
</style>
<g>
	<path class="st0" d="M9.4,14.8c-0.2-0.1-0.2-0.2-0.2-0.4c0-0.3,0-0.6,0-0.8c0-0.1,0-0.1-0.1-0.2c-0.2-0.1-0.2-0.1-0.4,0.1
		c-0.2,0.2-0.3,0.3-0.5,0.5c-0.2,0.2-0.3,0.2-0.5,0c-0.4-0.4-0.7-0.7-1.1-1.1c-0.2-0.2-0.2-0.3,0-0.5c0.2-0.2,0.4-0.4,0.6-0.6
		c0.1-0.1,0.1-0.1,0-0.2c0-0.1-0.1-0.1-0.1-0.2c-0.3,0-0.6,0-1,0c-0.3,0-0.4-0.1-0.4-0.4c0-0.5,0-1,0-1.5c0-0.3,0.1-0.4,0.4-0.4
		c0.3,0,0.6,0,0.8,0c0.1,0,0.1,0,0.2-0.1C7.2,8.8,7.2,8.8,7,8.6C6.9,8.5,6.7,8.3,6.5,8.1c-0.2-0.2-0.2-0.3,0-0.5
		c0.4-0.4,0.7-0.7,1.1-1.1c0.2-0.2,0.3-0.2,0.5,0c0.2,0.2,0.4,0.4,0.6,0.6c0.1,0.1,0.1,0.1,0.2,0c0,0,0.1,0,0.1,0
		c0.1,0,0.1-0.1,0.1-0.2c0-0.3,0-0.6,0-0.8c0-0.2,0.1-0.3,0.3-0.3c0.5,0,1.1,0,1.6,0c0.2,0,0.3,0.1,0.3,0.3c0,0.3,0,0.6,0,1
		c0,0,0,0,0,0C11.7,7.2,11.7,7.2,12,7c0.2-0.2,0.3-0.3,0.5-0.5c0.2-0.2,0.3-0.2,0.5,0c0.4,0.4,0.8,0.8,1.1,1.1
		c0.2,0.2,0.2,0.3,0,0.5c-0.2,0.2-0.4,0.4-0.6,0.6c-0.1,0.1-0.1,0.1,0,0.2c0,0,0,0.1,0,0.1c0,0.1,0.1,0.1,0.2,0.1c0.3,0,0.6,0,0.8,0
		c0.2,0,0.3,0.1,0.3,0.3c0,0.5,0,1,0,1.6c0,0.2-0.1,0.3-0.3,0.4c-0.3,0-0.6,0-0.9,0c-0.1,0-0.1,0-0.2,0.1c-0.1,0.2-0.1,0.2,0.1,0.4
		c0.2,0.2,0.4,0.3,0.5,0.5c0.2,0.2,0.2,0.3,0,0.5c-0.4,0.4-0.7,0.7-1.1,1.1c-0.2,0.2-0.3,0.2-0.5,0c-0.2-0.2-0.4-0.4-0.6-0.6
		c-0.1-0.1-0.1-0.1-0.2,0c-0.2,0.1-0.2,0.1-0.2,0.3c0,0.2,0,0.5,0,0.7c0,0.2,0,0.3-0.2,0.4C10.6,14.8,10,14.8,9.4,14.8z"/>
	<g id="XMLID_2_">
		<g>
			<path class="st1" d="M10.8,7.3c0,0.1,0.1,0.2,0.2,0.3c0.2,0.1,0.4,0.2,0.6,0.3c0.2,0.1,0.3,0,0.4-0.1c0.2-0.2,0.4-0.4,0.6-0.6
				c0.3,0.3,0.5,0.5,0.8,0.8c-0.2,0.2-0.4,0.4-0.6,0.6c-0.2,0.2-0.2,0.3-0.1,0.5c0.1,0.2,0.1,0.3,0.2,0.5c0.1,0.2,0.1,0.2,0.3,0.2
				c0.3,0,0.6,0,0.9,0c0,0.4,0,0.7,0,1.1c0,0-0.1,0-0.1,0c-0.3,0-0.5,0-0.8,0c-0.2,0-0.3,0.1-0.3,0.2c-0.1,0.2-0.2,0.4-0.2,0.6
				c-0.1,0.2-0.1,0.3,0.1,0.4c0.2,0.2,0.4,0.4,0.6,0.6c-0.3,0.3-0.5,0.5-0.8,0.8c0,0,0-0.1-0.1-0.1c-0.2-0.2-0.3-0.3-0.5-0.5
				c-0.1-0.1-0.2-0.1-0.4-0.1c-0.2,0.1-0.4,0.2-0.6,0.2c-0.2,0.1-0.2,0.1-0.2,0.3c0,0.3,0,0.5,0,0.8c0,0,0,0.1,0,0.1
				c-0.4,0-0.8,0-1.1,0c0-0.3,0-0.6,0-0.9c0-0.2,0-0.3-0.3-0.4c-0.2-0.1-0.3-0.1-0.5-0.2c-0.2-0.1-0.3-0.1-0.5,0.1
				c-0.2,0.2-0.4,0.4-0.6,0.6c-0.3-0.3-0.5-0.5-0.8-0.8c0.2-0.2,0.4-0.4,0.6-0.6c0.2-0.2,0.2-0.3,0.1-0.5c-0.1-0.1-0.1-0.3-0.2-0.4
				c-0.1-0.2-0.1-0.3-0.4-0.3c-0.3,0-0.6,0-0.9,0c0-0.4,0-0.7,0-1.1c0.1,0,0.1,0,0.2,0c0.2,0,0.5,0,0.7,0c0.1,0,0.2-0.1,0.3-0.2
				c0.1-0.2,0.2-0.4,0.2-0.6c0.1-0.1,0-0.3-0.1-0.4C7.5,8.3,7.3,8.1,7.1,7.9c0.3-0.3,0.5-0.5,0.8-0.8c0.2,0.2,0.4,0.4,0.6,0.6
				c0.2,0.2,0.2,0.2,0.5,0.1c0.2-0.1,0.3-0.1,0.5-0.2c0.2-0.1,0.2-0.2,0.2-0.3c0-0.3,0-0.6,0-0.9c0.4,0,0.7,0,1.1,0
				c0,0.2,0,0.5,0,0.7C10.8,7.1,10.8,7.2,10.8,7.3z"/>
		</g>
		<g>
		</g>
	</g>
	<path class="st0" d="M1.2,3.7c0.1-0.1,0.1-0.2,0.2-0.3C2.1,2.7,2.8,2,3.5,1.4c0.1-0.1,0.2-0.2,0.4-0.2c2,0,4,0,6,0
		c0.9,0,1.5,0.6,1.5,1.5c0,0.8,0,1.5,0,2.3c0,0,0,0.1,0,0.1c-0.2,0-0.4,0-0.6,0c0-0.1,0-0.1,0-0.2c0-0.8,0-1.5,0-2.3
		c0-0.4-0.1-0.7-0.5-0.8c-0.1-0.1-0.3-0.1-0.4-0.1c-1.9,0-3.9,0-5.8,0c0,0-0.1,0-0.1,0c0,0.1,0,0.1,0,0.2c0,0.6,0,1.1,0,1.7
		C4,3.9,3.9,4,3.6,4C3.1,4,2.5,4,1.9,4c0,0-0.1,0-0.2,0c0,0.1,0,0.1,0,0.2c0,3,0,6.1,0,9.1c0,0.5,0.2,0.8,0.6,0.9c0.1,0,0.2,0,0.3,0
		c1.4,0,2.8,0,4.2,0c0.1,0,0.1,0,0.2,0c0,0.2,0,0.4,0,0.6c-1.6,0-3.1,0-4.7,0c0,0,0,0-0.1,0c-0.3-0.1-0.6-0.2-0.8-0.5
		c-0.2-0.2-0.3-0.4-0.3-0.7C1.2,10.3,1.2,7,1.2,3.7z M3.5,3.5c0-0.4,0-0.8,0-1.2C3.1,2.6,2.6,3.1,2.2,3.5C2.6,3.5,3,3.5,3.5,3.5z"/>
	<path class="st1" d="M2.6,5.2c0-0.2,0-0.4,0-0.5c2.4,0,4.9,0,7.3,0c0,0.2,0,0.4,0,0.5C7.5,5.2,5.1,5.2,2.6,5.2z"/>
	<path class="st1" d="M2.6,6.6c0-0.2,0-0.4,0-0.5C4,6,5.4,6,6.9,6c0,0.2,0,0.4,0,0.5C5.4,6.6,4,6.6,2.6,6.6z"/>
	<path class="st1" d="M2.6,8c0-0.2,0-0.4,0-0.5c1,0,2.1,0,3.1,0c0,0.2,0,0.4,0,0.5C4.7,8,3.7,8,2.6,8z"/>
	<path class="st1" d="M2.6,10.3c0.8,0,1.7,0,2.5,0c0,0.2,0,0.4,0,0.6c-0.8,0-1.7,0-2.5,0C2.6,10.6,2.6,10.5,2.6,10.3z"/>
	<path class="st1" d="M2.6,9.4c0-0.2,0-0.4,0-0.5c0.8,0,1.7,0,2.5,0c0,0.2,0,0.4,0,0.5C4.3,9.4,3.5,9.4,2.6,9.4z"/>
	<path class="st1" d="M5.2,11.7c0,0.2,0,0.4,0,0.5c-0.8,0-1.7,0-2.5,0c0-0.2,0-0.4,0-0.5C3.5,11.7,4.3,11.7,5.2,11.7z"/>
	<path class="st0" d="M10.3,12c-0.9,0-1.7-0.7-1.7-1.7c0-0.9,0.8-1.7,1.7-1.7c0.9,0,1.7,0.8,1.7,1.7C12,11.2,11.2,12,10.3,12z
		 M9.1,10.2c0,0.6,0.5,1.1,1.1,1.1c0.6,0,1.1-0.5,1.1-1.1c0-0.6-0.5-1.1-1.1-1.1C9.7,9.1,9.2,9.6,9.1,10.2z"/>
</g>
</svg>
