<?xml version="1.0" encoding="utf-8"?>
<!-- Generator: Adobe Illustrator 24.2.0, SVG Export Plug-In . SVG Version: 6.00 Build 0)  -->
<svg version="1.1" xmlns="http://www.w3.org/2000/svg" xmlns:xlink="http://www.w3.org/1999/xlink" x="0px" y="0px"
	 viewBox="0 0 32 32" style="enable-background:new 0 0 32 32;" xml:space="preserve">
<style type="text/css">
	.st0{fill:#4AA851;}
	.st1{fill:#B8D637;}
	.st2{fill:#363636;}
</style>
<g id="Layer_5">
	<path class="st0" d="M30.3,8.3H1.7V6c0-1.4,1.1-2.5,2.5-2.5h23.4c1.5,0,2.6,1.2,2.6,2.6V8.3z"/>
	<rect x="11.2" y="8.3" class="st0" width="9.6" height="19.9"/>
	<path class="st1" d="M11,28.3H3.8c-1.1,0-2-0.9-2-2V8.4H11V28.3z"/>
	<path class="st1" d="M28.4,28.3h-7.6V8.4H30v18.2C30,27.5,29.3,28.3,28.4,28.3z"/>
</g>
<g id="Layer_2">
	<path class="st2" d="M28,3.2H4c-1.4,0-2.5,1.1-2.5,2.5v20.5c0,1.4,1.1,2.5,2.5,2.5H28c1.4,0,2.5-1.1,2.5-2.5V5.7
		C30.6,4.3,29.4,3.2,28,3.2z M29.6,12.9v0.8v4.2v0.8v4.2v0.8v2.5c0,0.9-0.7,1.6-1.6,1.6h-7.7h-1.1h-0.8H8.1H7.3H6.5H4
		c-0.9,0-1.6-0.7-1.6-1.6v-2.5v-0.8v-4.2v-0.8v-4.2v-0.8V8.8h5h0.8h10.3h0.8h10.4V12.9z M29.6,8H2.4V5.7c0-0.9,0.7-1.6,1.6-1.6H28
		c0.9,0,1.6,0.7,1.6,1.6V8z"/>
	<g>
		<rect x="10.7" y="8" class="st2" width="0.9" height="20.1"/>
		<rect x="20.3" y="8" class="st2" width="0.9" height="20.1"/>
	</g>
</g>
<g id="Layer_4">
	
		<rect x="15.6" y="-0.5" transform="matrix(6.123234e-17 -1 1 6.123234e-17 2.6518 29.4376)" class="st2" width="0.8" height="27.9"/>
	
		<rect x="15.6" y="4.5" transform="matrix(6.123234e-17 -1 1 6.123234e-17 -2.3384 34.4278)" class="st2" width="0.8" height="27.9"/>
	
		<rect x="15.6" y="9.4" transform="matrix(6.123234e-17 -1 1 6.123234e-17 -7.3285 39.4179)" class="st2" width="0.8" height="27.9"/>
</g>
</svg>
