<?xml version="1.0" encoding="UTF-8"?>
<!DOCTYPE svg PUBLIC "-//W3C//DTD SVG 1.1//EN" "http://www.w3.org/Graphics/SVG/1.1/DTD/svg11.dtd">
<svg version="1.1" xmlns="http://www.w3.org/2000/svg" xmlns:xlink="http://www.w3.org/1999/xlink" x="0" y="0" width="1368.344" height="424.321" viewBox="0, 0, 1368.344, 424.321">
  <g id="Layer_1">
    <g>
      <path d="M277.516,169.455 C282.968,147.488 286.015,125.913 284.284,109.69 C279.89,68.503 248.778,59.065 230.838,59.076 C212.162,59.087 185.442,65.992 177.753,109.554 C171.107,147.219 190.263,200.18 218.619,249.358 C218.619,249.358 215.462,256.633 207.224,268.303 C195.295,285.201 185.706,294.49 185.706,294.49 C148.995,231.164 120.167,175.785 120.456,134.775 C121.201,29.34 180.314,-0.319 230.837,0.003 C281.36,0.325 341.767,33.71 341.767,133.855 C341.767,144.6 337.89,162.866 335.177,174.948 C331.312,174.636 320.839,172.857 309.504,171.791 C291.98,170.138 277.516,169.455 277.516,169.455 z" fill="#54A2CC"/>
      <path d="M138.18,245.32 C116.43,251.582 96.223,259.731 83.039,269.341 C49.566,293.739 56.949,325.404 65.929,340.935 C75.277,357.103 94.617,376.79 136.187,361.667 C172.129,348.592 208.416,305.521 236.827,256.375 C236.827,256.375 244.707,255.472 258.932,256.771 C279.53,258.651 292.369,262.314 292.369,262.314 C255.883,325.767 222.337,378.423 186.677,398.678 C94.995,450.75 39.753,414.386 14.77,370.471 C-10.211,326.556 -11.502,257.55 75.225,207.477 C84.53,202.105 102.288,196.331 114.107,192.639 C115.768,196.142 119.465,206.099 124.209,216.451 C131.54,232.453 138.18,245.32 138.18,245.32 z" fill="#EEB248"/>
      <path d="M276.706,326.124 C293.003,341.83 310.165,355.255 325.08,361.867 C362.946,378.656 386.677,356.429 395.637,340.888 C404.965,324.71 412.345,298.116 378.464,269.678 C349.167,245.088 293.724,235.197 236.957,235.167 C236.957,235.167 232.236,228.793 226.249,215.826 C217.577,197.047 214.328,184.097 214.328,184.097 C287.524,183.968 349.899,186.691 385.27,207.447 C476.208,260.809 472.335,326.833 446.795,370.426 C421.257,414.017 362.139,449.639 275.41,399.568 C266.106,394.194 252.226,381.704 243.119,373.313 C245.322,370.123 252.098,361.943 258.69,352.66 C268.884,338.308 276.706,326.124 276.706,326.124 z" fill="#8A8B8B"/>
    </g>
    <g>
      <g>
        <path d="M641.94,252.894 L606.464,252.894 L560.635,209.718 L560.635,252.894 L534.374,252.894 L534.374,135.473 L560.635,135.473 L560.635,178.684 L606.464,135.473 L638.488,135.473 L576.885,192.949 L641.94,252.894 z" fill="#676869"/>
        <path d="M699.759,135.81 L725.691,135.81 L778.08,252.894 L753.949,252.894 L741.634,226.97 L682.334,226.97 L670.015,252.894 L646.534,252.894 L699.759,135.81 z M693.348,203.134 L732.26,203.134 L713.218,157.798 L713.05,157.798 L693.348,203.134 z" fill="#676869"/>
        <path d="M856.08,209.544 L857.086,209.544 L887.464,253.073 L858.389,253.073 L828.726,210.861 L816.009,210.861 L816.009,253.073 L790.239,253.073 L790.239,135.646 L843.121,135.646 C850.453,135.646 856.731,136.709 861.914,138.838 C867.124,140.968 871.36,143.81 874.665,147.28 C877.933,150.793 880.315,154.825 881.79,159.374 C883.288,163.923 884.011,168.54 884.011,173.247 C884.011,177.178 883.459,181.115 882.367,184.988 C881.285,188.896 879.589,192.469 877.356,195.743 C875.107,199.029 872.247,201.886 868.73,204.282 C865.232,206.694 861.005,208.445 856.08,209.544 z M836.131,155.68 L816.009,155.68 L816.009,190.996 L836.131,190.996 C839.214,190.996 842.113,190.775 844.865,190.335 C847.628,189.884 850.011,189.018 852.038,187.699 C854.076,186.389 855.686,184.577 856.892,182.287 C858.108,179.978 858.719,176.974 858.719,173.248 C858.719,169.42 858.108,166.344 856.892,164.051 C855.687,161.762 854.077,159.972 852.038,158.718 C850.012,157.457 847.628,156.629 844.865,156.239 C842.113,155.88 839.214,155.68 836.131,155.68 z" fill="#676869"/>
        <path d="M936.059,157.318 L898.79,157.491 L898.79,135.81 L998.819,135.81 L998.819,157.491 L961.865,157.318 L961.865,252.894 L936.058,252.894 L936.058,157.318 z" fill="#676869"/>
        <path d="M1126.593,193.785 C1126.593,202.198 1124.97,210.084 1121.713,217.431 C1118.518,224.763 1114.148,231.175 1108.684,236.641 C1103.193,242.117 1096.781,246.454 1089.372,249.614 C1081.977,252.795 1074.126,254.392 1065.81,254.392 C1057.385,254.392 1049.499,252.794 1042.164,249.614 C1034.845,246.455 1028.419,242.117 1022.94,236.641 C1017.476,231.175 1013.151,224.763 1009.983,217.431 C1006.814,210.083 1005.205,202.198 1005.205,193.785 C1005.205,185.346 1006.814,177.447 1009.983,170.04 C1013.151,162.646 1017.476,156.222 1022.94,150.743 C1028.419,145.269 1034.844,140.969 1042.164,137.788 C1049.5,134.582 1057.386,133.016 1065.81,133.016 C1074.125,133.016 1081.977,134.582 1089.372,137.788 C1096.78,140.969 1103.192,145.269 1108.684,150.743 C1114.148,156.222 1118.518,162.646 1121.713,170.04 C1124.97,177.447 1126.593,185.346 1126.593,193.785 z M1065.811,157.798 C1060.897,157.798 1056.281,158.756 1051.946,160.672 C1047.594,162.605 1043.836,165.212 1040.606,168.48 C1037.386,171.775 1034.784,175.582 1032.891,179.898 C1030.963,184.229 1030.005,188.861 1030.005,193.786 C1030.005,198.693 1030.963,203.335 1032.891,207.668 C1034.784,211.99 1037.386,215.755 1040.606,218.981 C1043.835,222.211 1047.594,224.807 1051.946,226.707 C1056.281,228.636 1060.897,229.57 1065.811,229.57 C1070.749,229.57 1075.331,228.635 1079.605,226.707 C1083.892,224.808 1087.64,222.212 1090.87,218.981 C1094.079,215.754 1096.634,211.99 1098.497,207.668 C1100.355,203.335 1101.276,198.693 1101.276,193.786 C1101.276,188.861 1100.355,184.229 1098.497,179.898 C1096.634,175.582 1094.079,171.775 1090.87,168.48 C1087.641,165.212 1083.892,162.605 1079.605,160.672 C1075.33,158.756 1070.749,157.798 1065.811,157.798 z" fill="#676869"/>
        <path d="M1133.975,232.539 L1196.866,157.318 L1138.887,157.318 L1138.887,135.646 L1231.21,135.646 L1231.21,155.992 L1168.308,231.215 L1232.846,231.215 L1232.846,252.895 L1133.976,252.895 L1133.976,232.539 z" fill="#676869"/>
        <path d="M1289.988,135.81 L1315.941,135.81 L1368.344,252.894 L1344.179,252.894 L1331.87,226.97 L1272.584,226.97 L1260.274,252.894 L1236.774,252.894 L1289.988,135.81 z M1283.588,203.134 L1322.501,203.134 L1303.473,157.798 L1303.305,157.798 L1283.588,203.134 z" fill="#676869"/>
      </g>
      <g>
        <path d="M559.924,302 C559.924,304.082 559.517,306.033 558.712,307.87 C557.919,309.642 556.852,311.236 555.495,312.604 C554.144,313.962 552.558,315.001 550.728,315.786 C548.91,316.586 546.969,316.967 544.913,316.967 C542.839,316.967 540.895,316.586 539.077,315.786 C537.271,315.002 535.685,313.963 534.323,312.604 C532.985,311.236 531.904,309.642 531.135,307.87 C530.344,306.033 529.963,304.082 529.963,302 C529.963,299.928 530.344,297.987 531.135,296.152 C531.904,294.328 532.985,292.743 534.323,291.379 C535.685,290.047 537.271,288.983 539.077,288.187 C540.895,287.399 542.839,287.005 544.913,287.005 C546.97,287.005 548.911,287.399 550.728,288.187 C552.558,288.984 554.144,290.047 555.495,291.379 C556.851,292.743 557.919,294.328 558.712,296.152 C559.517,297.987 559.924,299.928 559.924,302 z M544.913,293.135 C543.701,293.135 542.559,293.381 541.493,293.836 C540.415,294.315 539.493,294.953 538.696,295.777 C537.886,296.593 537.259,297.533 536.793,298.594 C536.314,299.646 536.08,300.8 536.08,301.999 C536.08,303.226 536.313,304.373 536.793,305.432 C537.26,306.498 537.886,307.422 538.696,308.233 C539.494,309.035 540.415,309.683 541.493,310.147 C542.558,310.615 543.701,310.847 544.913,310.847 C546.127,310.847 547.27,310.615 548.322,310.147 C549.382,309.683 550.303,309.035 551.096,308.233 C551.889,307.422 552.527,306.499 552.983,305.432 C553.437,304.373 553.669,303.226 553.669,301.999 C553.669,300.8 553.437,299.645 552.983,298.594 C552.526,297.532 551.889,296.593 551.096,295.777 C550.303,294.953 549.382,294.315 548.322,293.836 C547.27,293.381 546.128,293.135 544.913,293.135 z" fill="#676869"/>
        <path d="M563.594,287.658 L576.654,287.658 C578.466,287.658 580.007,287.929 581.271,288.456 C582.538,288.996 583.586,289.683 584.379,290.525 C585.172,291.403 585.754,292.398 586.122,293.515 C586.478,294.654 586.664,295.777 586.664,296.933 C586.664,298.136 586.478,299.283 586.122,300.395 C585.754,301.495 585.172,302.489 584.379,303.343 C583.586,304.209 582.537,304.908 581.271,305.432 C580.006,305.948 578.465,306.242 576.654,306.242 L569.96,306.242 L569.96,316.603 L563.595,316.603 L563.595,287.658 z M569.959,301.287 L574.908,301.287 C575.651,301.287 576.338,301.236 577.01,301.108 C577.696,301.004 578.293,300.8 578.809,300.501 C579.313,300.188 579.725,299.756 580.044,299.165 C580.351,298.602 580.511,297.846 580.511,296.934 C580.511,296.023 580.351,295.274 580.044,294.708 C579.725,294.15 579.313,293.696 578.809,293.394 C578.293,293.075 577.696,292.866 577.01,292.757 C576.338,292.668 575.652,292.619 574.908,292.619 L569.959,292.619 L569.959,301.287 z" fill="#676869"/>
        <path d="M596.074,311.204 L612.409,311.204 L612.409,316.562 L589.908,316.562 L589.908,287.533 L611.034,287.533 L611.034,292.915 L596.074,292.915 L596.074,299.402 L609.283,299.402 L609.283,305.04 L596.074,305.04 L596.074,311.204 z" fill="#676869"/>
        <path d="M621.453,295.446 L621.453,316.639 L616.428,316.639 L616.428,287.589 L621.453,287.589 L623.711,287.589 L636.652,305.657 L636.652,287.589 L642.038,287.589 L642.038,316.639 L636.652,316.639 L621.453,295.446 z" fill="#676869"/>
        <path d="M663.965,307.004 C663.965,307.962 664.137,308.803 664.491,309.473 C664.849,310.148 665.316,310.702 665.892,311.109 C666.476,311.547 667.146,311.858 667.921,312.04 C668.693,312.257 669.517,312.336 670.374,312.336 C670.94,312.336 671.557,312.312 672.193,312.22 C672.844,312.101 673.46,311.943 674.01,311.648 C674.602,311.405 675.055,311.031 675.438,310.554 C675.817,310.063 676.006,309.474 676.006,308.726 C676.006,307.951 675.768,307.326 675.252,306.834 C674.759,306.349 674.098,305.937 673.285,305.616 C672.482,305.248 671.566,304.967 670.535,304.744 C669.515,304.512 668.459,304.254 667.414,303.952 C666.334,303.694 665.283,303.345 664.258,302.958 C663.227,302.57 662.303,302.079 661.5,301.452 C660.683,300.812 660.025,300.047 659.521,299.118 C659.023,298.221 658.779,297.078 658.779,295.727 C658.779,294.244 659.092,292.958 659.724,291.862 C660.365,290.76 661.185,289.832 662.217,289.119 C663.25,288.395 664.411,287.838 665.72,287.5 C667.009,287.137 668.298,286.994 669.599,286.994 C671.112,286.994 672.574,287.137 673.958,287.485 C675.349,287.824 676.589,288.372 677.669,289.119 C678.751,289.855 679.61,290.826 680.249,292.031 C680.871,293.203 681.196,294.622 681.196,296.306 L675.036,296.306 C674.979,295.426 674.804,294.708 674.491,294.151 C674.173,293.578 673.762,293.135 673.25,292.804 C672.731,292.491 672.144,292.258 671.466,292.117 C670.796,291.988 670.066,291.918 669.323,291.918 C668.807,291.918 668.298,291.973 667.781,292.08 C667.264,292.204 666.799,292.386 666.381,292.644 C665.951,292.927 665.607,293.248 665.337,293.68 C665.067,294.092 664.943,294.609 664.943,295.2 C664.943,295.777 665.041,296.23 665.258,296.594 C665.484,296.907 665.914,297.251 666.541,297.546 C667.178,297.812 668.051,298.106 669.17,298.419 C670.299,298.725 671.762,299.117 673.574,299.578 C673.922,299.658 674.377,299.774 674.953,299.928 C675.519,300.065 676.121,300.266 676.76,300.526 C677.388,300.771 678.028,301.109 678.664,301.52 C679.303,301.931 679.893,302.448 680.394,303.012 C680.923,303.626 681.353,304.324 681.687,305.155 C682.004,305.998 682.165,306.932 682.165,308.01 C682.165,309.333 681.906,310.567 681.391,311.707 C680.889,312.837 680.125,313.809 679.106,314.632 C678.093,315.468 676.835,316.112 675.336,316.598 C673.844,317.066 672.1,317.296 670.125,317.296 C668.529,317.296 666.983,317.108 665.483,316.695 C663.985,316.291 662.671,315.658 661.529,314.827 C660.4,313.979 659.487,312.913 658.788,311.623 C658.113,310.319 657.771,308.773 657.806,307.004 L663.965,307.004 z" fill="#676869"/>
        <path d="M713.785,302 C713.785,304.082 713.381,306.033 712.583,307.87 C711.797,309.642 710.717,311.236 709.377,312.604 C708.025,313.962 706.43,315.001 704.597,315.786 C702.781,316.586 700.841,316.967 698.789,316.967 C696.713,316.967 694.758,316.586 692.948,315.786 C691.135,315.002 689.558,313.963 688.213,312.604 C686.86,311.236 685.786,309.642 685.019,307.87 C684.236,306.033 683.84,304.082 683.84,302 C683.84,299.928 684.236,297.987 685.019,296.152 C685.787,294.328 686.861,292.743 688.213,291.379 C689.559,290.047 691.136,288.983 692.948,288.187 C694.758,287.399 696.713,287.005 698.789,287.005 C700.841,287.005 702.78,287.399 704.597,288.187 C706.43,288.984 708.026,290.047 709.377,291.379 C710.717,292.743 711.797,294.328 712.583,296.152 C713.381,297.987 713.785,299.928 713.785,302 z M698.789,293.135 C697.572,293.135 696.431,293.381 695.363,293.836 C694.286,294.315 693.365,294.953 692.561,295.777 C691.773,296.593 691.13,297.533 690.667,298.594 C690.188,299.646 689.958,300.8 689.958,301.999 C689.958,303.226 690.188,304.373 690.667,305.432 C691.13,306.498 691.772,307.422 692.561,308.233 C693.365,309.035 694.286,309.683 695.363,310.147 C696.43,310.615 697.572,310.847 698.789,310.847 C700.015,310.847 701.143,310.615 702.193,310.147 C703.247,309.683 704.173,309.035 704.966,308.233 C705.772,307.422 706.39,306.499 706.858,305.432 C707.313,304.373 707.535,303.226 707.535,301.999 C707.535,300.8 707.313,299.645 706.858,298.594 C706.39,297.532 705.772,296.593 704.966,295.777 C704.173,294.953 703.246,294.315 702.193,293.836 C701.143,293.381 700.015,293.135 698.789,293.135 z" fill="#676869"/>
        <path d="M742.039,305.658 C742.039,309.577 740.933,312.502 738.76,314.417 C736.572,316.326 733.551,317.296 729.69,317.296 C725.757,317.296 722.737,316.326 720.567,314.428 C718.429,312.543 717.35,309.596 717.35,305.658 L717.35,287.658 L723.705,287.658 L723.705,305.658 C723.705,306.463 723.787,307.199 723.934,307.962 C724.05,308.712 724.339,309.4 724.782,310.007 C725.198,310.58 725.812,311.059 726.574,311.414 C727.354,311.765 728.381,311.941 729.69,311.941 C731.943,311.941 733.502,311.439 734.375,310.42 C735.234,309.412 735.673,307.813 735.673,305.658 L735.673,287.658 L742.04,287.658 L742.04,305.658 z" fill="#676869"/>
        <path d="M763.683,305.902 L763.928,305.902 L771.433,316.639 L764.261,316.639 L756.929,306.242 L753.795,306.242 L753.795,316.639 L747.444,316.639 L747.444,287.658 L760.49,287.658 C762.295,287.658 763.842,287.929 765.119,288.456 C766.415,288.996 767.455,289.683 768.264,290.525 C769.08,291.403 769.664,292.398 770.034,293.515 C770.405,294.654 770.573,295.777 770.573,296.933 C770.573,297.927 770.438,298.885 770.186,299.856 C769.887,300.8 769.492,301.698 768.929,302.502 C768.387,303.319 767.687,304.007 766.804,304.606 C765.936,305.211 764.912,305.621 763.683,305.902 z M758.758,292.619 L753.795,292.619 L753.795,301.316 L758.758,301.316 C759.519,301.316 760.231,301.258 760.922,301.17 C761.606,301.047 762.183,300.825 762.687,300.525 C763.192,300.187 763.584,299.755 763.891,299.165 C764.192,298.602 764.348,297.846 764.348,296.934 C764.348,295.997 764.192,295.235 763.891,294.678 C763.584,294.093 763.192,293.67 762.687,293.369 C762.183,293.051 761.606,292.841 760.922,292.757 C760.231,292.668 759.519,292.619 758.758,292.619 z" fill="#676869"/>
        <path d="M802.204,308.871 C801.579,310.007 800.815,311.094 799.92,312.039 C799.035,313.01 798.028,313.846 796.91,314.509 C795.815,315.198 794.6,315.724 793.298,316.123 C791.984,316.488 790.632,316.695 789.219,316.695 C787.194,316.695 785.303,316.302 783.496,315.541 C781.728,314.768 780.167,313.719 778.852,312.396 C777.526,311.058 776.483,309.51 775.695,307.728 C774.934,305.948 774.541,304.031 774.541,301.999 C774.541,300.006 774.935,298.108 775.695,296.347 C776.483,294.535 777.526,292.989 778.852,291.675 C780.166,290.321 781.728,289.272 783.496,288.518 C785.303,287.718 787.193,287.357 789.219,287.357 C790.608,287.357 791.935,287.533 793.199,287.878 C794.465,288.248 795.655,288.774 796.749,289.416 C797.842,290.065 798.813,290.876 799.697,291.797 C800.57,292.699 801.32,293.726 801.945,294.829 C801.32,295.155 800.829,295.426 800.459,295.618 C800.066,295.85 799.723,296.022 799.353,296.195 C798.999,296.372 798.618,296.564 798.176,296.785 C797.746,297.005 797.194,297.265 796.518,297.601 C795.816,296.347 794.822,295.332 793.52,294.561 C792.217,293.81 790.794,293.405 789.219,293.405 C788.041,293.405 786.913,293.638 785.891,294.093 C784.836,294.562 783.926,295.188 783.152,295.949 C782.354,296.712 781.74,297.612 781.297,298.7 C780.857,299.756 780.624,300.85 780.624,302 C780.624,303.201 780.856,304.314 781.297,305.356 C781.74,306.384 782.355,307.324 783.152,308.078 C783.926,308.871 784.837,309.486 785.891,309.94 C786.913,310.381 788.041,310.615 789.219,310.615 C790.843,310.615 792.315,310.173 793.657,309.362 C794.994,308.54 796.026,307.458 796.75,306.095 C797.427,306.462 797.979,306.734 798.422,306.953 C798.815,307.175 799.206,307.377 799.552,307.575 C799.921,307.764 800.278,307.937 800.658,308.134 C801.036,308.311 801.529,308.572 802.204,308.871 z" fill="#676869"/>
        <path d="M811.564,311.204 L827.887,311.204 L827.887,316.562 L805.398,316.562 L805.398,287.533 L826.513,287.533 L826.513,292.915 L811.564,292.915 L811.564,299.402 L824.755,299.402 L824.755,305.04 L811.564,305.04 L811.564,311.204 z" fill="#676869"/>
        <path d="M872.158,302.114 C872.158,302.397 872.124,302.852 872.036,303.478 C871.95,304.128 871.84,304.805 871.728,305.541 C871.568,306.267 871.421,306.992 871.186,307.691 C871.015,308.39 870.77,308.931 870.5,309.305 C869.886,310.466 869.088,311.545 868.19,312.487 C867.269,313.445 866.236,314.262 865.106,314.944 C863.964,315.616 862.737,316.148 861.436,316.534 C860.132,316.897 858.756,317.106 857.367,317.106 C855.304,317.106 853.375,316.708 851.558,315.901 C849.751,315.14 848.168,314.042 846.815,312.695 C845.428,311.329 844.346,309.742 843.573,307.924 C842.775,306.125 842.419,304.16 842.419,302.093 C842.419,300.045 842.775,298.105 843.573,296.305 C844.346,294.486 845.428,292.914 846.815,291.527 C848.169,290.163 849.752,289.093 851.558,288.296 C853.374,287.533 855.304,287.136 857.367,287.136 C858.757,287.136 860.107,287.314 861.407,287.694 C862.713,288.082 863.915,288.602 865.057,289.273 C866.176,289.917 867.182,290.719 868.103,291.676 C868.999,292.572 869.8,293.627 870.452,294.771 C869.801,295.076 869.285,295.36 868.903,295.557 C868.498,295.778 868.116,295.972 867.76,296.153 C867.392,296.348 866.996,296.527 866.556,296.761 C866.126,296.954 865.561,297.238 864.874,297.602 C864.11,296.317 863.066,295.298 861.74,294.511 C860.413,293.726 858.953,293.346 857.366,293.346 C856.152,293.346 854.997,293.567 853.939,294.032 C852.858,294.487 851.937,295.102 851.166,295.894 C850.379,296.673 849.751,297.602 849.298,298.664 C848.844,299.743 848.597,300.877 848.597,302.095 C848.597,303.322 848.844,304.474 849.298,305.507 C849.751,306.595 850.379,307.522 851.166,308.313 C851.937,309.105 852.858,309.745 853.939,310.174 C854.997,310.63 856.152,310.849 857.366,310.849 C858.99,310.849 860.461,310.458 861.814,309.636 C863.164,308.828 864.233,307.767 865.02,306.478 C864.284,306.464 863.595,306.441 863.042,306.464 C862.449,306.464 861.862,306.478 861.187,306.478 C860.525,306.478 859.909,306.478 859.345,306.478 C858.766,306.5 858.301,306.5 857.919,306.5 C857.562,306.5 857.365,306.488 857.365,306.478 L857.365,302.095 C858.386,302.095 859.505,302.095 860.696,302.095 C861.911,302.095 863.151,302.095 864.429,302.095 C865.719,302.095 867.008,302.104 868.337,302.104 C869.642,302.114 870.906,302.114 872.158,302.114 z" fill="#676869"/>
        <path d="M881.753,311.204 L898.101,311.204 L898.101,316.562 L875.599,316.562 L875.599,287.533 L896.716,287.533 L896.716,292.915 L881.753,292.915 L881.753,299.402 L894.982,299.402 L894.982,305.04 L881.753,305.04 L881.753,311.204 z" fill="#676869"/>
        <path d="M930.568,302 C930.568,304.082 930.186,306.033 929.353,307.87 C928.563,309.642 927.497,311.236 926.158,312.604 C924.821,313.962 923.224,315.001 921.38,315.786 C919.575,316.586 917.621,316.967 915.571,316.967 C913.482,316.967 911.542,316.586 909.735,315.786 C907.918,315.002 906.345,313.963 904.994,312.604 C903.643,311.236 902.576,309.642 901.801,307.87 C901.001,306.033 900.609,304.082 900.609,302 C900.609,299.928 901.002,297.987 901.801,296.152 C902.576,294.328 903.644,292.743 904.994,291.379 C906.346,290.047 907.918,288.983 909.735,288.187 C911.542,287.399 913.482,287.005 915.571,287.005 C917.621,287.005 919.575,287.399 921.38,288.187 C923.225,288.984 924.821,290.047 926.158,291.379 C927.497,292.743 928.563,294.328 929.353,296.152 C930.186,297.987 930.568,299.928 930.568,302 z M915.571,293.135 C914.352,293.135 913.211,293.381 912.143,293.836 C911.076,294.315 910.141,294.953 909.353,295.777 C908.555,296.593 907.917,297.533 907.45,298.594 C906.983,299.646 906.739,300.8 906.739,301.999 C906.739,303.226 906.983,304.373 907.45,305.432 C907.918,306.498 908.555,307.422 909.353,308.233 C910.141,309.035 911.076,309.683 912.143,310.147 C913.21,310.615 914.352,310.847 915.571,310.847 C916.786,310.847 917.918,310.615 918.971,310.147 C920.029,309.683 920.95,309.035 921.749,308.233 C922.559,307.422 923.184,306.499 923.641,305.432 C924.108,304.373 924.341,303.226 924.341,301.999 C924.341,300.8 924.108,299.645 923.641,298.594 C923.184,297.532 922.559,296.593 921.749,295.777 C920.95,294.953 920.028,294.315 918.971,293.836 C917.917,293.381 916.785,293.135 915.571,293.135 z" fill="#676869"/>
        <path d="M938.601,307.004 C938.601,307.962 938.761,308.803 939.119,309.473 C939.487,310.148 939.939,310.702 940.517,311.109 C941.107,311.547 941.784,311.858 942.543,312.04 C943.328,312.257 944.143,312.336 945,312.336 C945.555,312.336 946.179,312.312 946.832,312.22 C947.471,312.101 948.082,311.943 948.661,311.648 C949.214,311.405 949.694,311.031 950.074,310.554 C950.455,310.063 950.639,309.474 950.639,308.726 C950.639,307.951 950.404,307.326 949.89,306.834 C949.384,306.349 948.722,305.937 947.911,305.616 C947.102,305.248 946.206,304.967 945.173,304.744 C944.143,304.512 943.097,304.254 942.038,303.952 C940.946,303.694 939.901,303.345 938.886,302.958 C937.85,302.57 936.943,302.079 936.131,301.452 C935.309,300.812 934.657,300.047 934.166,299.118 C933.65,298.221 933.405,297.078 933.405,295.727 C933.405,294.244 933.724,292.958 934.351,291.862 C934.989,290.76 935.826,289.832 936.843,289.119 C937.889,288.395 939.042,287.838 940.343,287.5 C941.646,287.137 942.924,286.994 944.239,286.994 C945.749,286.994 947.212,287.137 948.587,287.485 C949.988,287.824 951.204,288.372 952.298,289.119 C953.364,289.855 954.252,290.826 954.876,292.031 C955.517,293.203 955.821,294.622 955.821,296.306 L949.643,296.306 C949.62,295.426 949.432,294.708 949.115,294.151 C948.798,293.578 948.379,293.135 947.874,292.804 C947.372,292.491 946.794,292.258 946.094,292.117 C945.429,291.988 944.708,291.918 943.957,291.918 C943.43,291.918 942.925,291.973 942.409,292.08 C941.905,292.204 941.427,292.386 941.021,292.644 C940.589,292.927 940.259,293.248 939.965,293.68 C939.694,294.092 939.559,294.609 939.559,295.2 C939.559,295.777 939.682,296.23 939.901,296.594 C940.124,296.907 940.541,297.251 941.155,297.546 C941.807,297.812 942.679,298.106 943.821,298.419 C944.916,298.725 946.389,299.117 948.208,299.578 C948.562,299.658 949.006,299.774 949.583,299.928 C950.148,300.065 950.749,300.266 951.377,300.526 C952.027,300.771 952.654,301.109 953.293,301.52 C953.932,301.931 954.508,302.448 955.036,303.012 C955.564,303.626 955.995,304.324 956.315,305.155 C956.622,305.998 956.803,306.932 956.803,308.01 C956.803,309.333 956.546,310.567 956.032,311.707 C955.516,312.837 954.754,313.809 953.733,314.632 C952.728,315.468 951.486,316.112 949.951,316.598 C948.477,317.066 946.721,317.296 944.756,317.296 C943.158,317.296 941.623,317.108 940.124,316.695 C938.624,316.291 937.298,315.658 936.167,314.827 C935.039,313.979 934.117,312.913 933.417,311.623 C932.742,310.319 932.409,308.773 932.423,307.004 L938.601,307.004 z" fill="#676869"/>
        <path d="M960.528,287.658 L973.598,287.658 C975.366,287.658 976.913,287.929 978.202,288.456 C979.469,288.996 980.512,289.683 981.299,290.525 C982.099,291.403 982.663,292.398 983.045,293.515 C983.411,294.654 983.608,295.777 983.608,296.933 C983.608,298.136 983.411,299.283 983.045,300.395 C982.663,301.495 982.099,302.489 981.299,303.343 C980.512,304.209 979.469,304.908 978.202,305.432 C976.913,305.948 975.365,306.242 973.598,306.242 L966.878,306.242 L966.878,316.603 L960.527,316.603 L960.527,287.658 z M966.878,301.287 L971.841,301.287 C972.565,301.287 973.278,301.236 973.943,301.108 C974.615,301.004 975.23,300.8 975.723,300.501 C976.238,300.188 976.63,299.756 976.975,299.165 C977.282,298.602 977.43,297.846 977.43,296.934 C977.43,296.023 977.282,295.274 976.975,294.708 C976.63,294.15 976.238,293.696 975.723,293.394 C975.23,293.075 974.615,292.866 973.943,292.757 C973.278,292.668 972.565,292.619 971.841,292.619 L966.878,292.619 L966.878,301.287 z" fill="#676869"/>
        <path d="M997.957,287.693 L1004.355,287.693 L1017.292,316.603 L1011.32,316.603 L1008.277,310.187 L993.645,310.187 L990.61,316.603 L984.798,316.603 L997.957,287.693 z M996.363,304.314 L1005.967,304.314 L1001.25,293.134 L1001.21,293.134 L996.363,304.314 z" fill="#676869"/>
        <path d="M1027.6,293.013 L1018.409,293.051 L1018.409,287.694 L1043.089,287.694 L1043.089,293.051 L1033.985,293.013 L1033.985,316.604 L1027.6,316.604 L1027.6,293.013 z" fill="#676869"/>
        <path d="M1046.761,287.658 L1053.11,287.658 L1053.11,316.603 L1046.761,316.603 L1046.761,287.658 z" fill="#676869"/>
        <path d="M1068.784,287.693 L1075.199,287.693 L1088.12,316.603 L1082.196,316.603 L1079.139,310.187 L1064.496,310.187 L1061.45,316.603 L1055.641,316.603 L1068.784,287.693 z M1067.199,304.314 L1076.817,304.314 L1072.113,293.134 L1072.087,293.134 L1067.199,304.314 z" fill="#676869"/>
        <path d="M1090.515,316.407 L1090.515,287.533 L1096.781,287.533 L1096.781,311.044 L1111.591,311.044 L1111.591,316.407 L1090.515,316.407 z" fill="#676869"/>
        <path d="M1132.853,307.004 C1132.853,307.962 1133.013,308.803 1133.358,309.473 C1133.718,310.148 1134.183,310.702 1134.762,311.109 C1135.336,311.547 1136.014,311.858 1136.775,312.04 C1137.563,312.257 1138.372,312.336 1139.245,312.336 C1139.798,312.336 1140.411,312.312 1141.073,312.22 C1141.711,312.101 1142.325,311.943 1142.893,311.648 C1143.446,311.405 1143.937,311.031 1144.292,310.554 C1144.697,310.063 1144.882,309.474 1144.882,308.726 C1144.882,307.951 1144.647,307.326 1144.143,306.834 C1143.615,306.349 1142.965,305.937 1142.167,305.616 C1141.345,305.248 1140.435,304.967 1139.415,304.744 C1138.371,304.512 1137.327,304.254 1136.294,303.952 C1135.202,303.694 1134.135,303.345 1133.125,302.958 C1132.103,302.57 1131.171,302.079 1130.349,301.452 C1129.551,300.812 1128.913,300.047 1128.387,299.118 C1127.917,298.221 1127.648,297.078 1127.648,295.727 C1127.648,294.244 1127.965,292.958 1128.595,291.862 C1129.257,290.76 1130.042,289.832 1131.089,289.119 C1132.132,288.395 1133.275,287.838 1134.588,287.5 C1135.878,287.137 1137.178,286.994 1138.491,286.994 C1139.994,286.994 1141.428,287.137 1142.843,287.485 C1144.217,287.824 1145.456,288.372 1146.54,289.119 C1147.621,289.855 1148.48,290.826 1149.107,292.031 C1149.743,293.203 1150.066,294.622 1150.066,296.306 L1143.91,296.306 C1143.851,295.426 1143.664,294.708 1143.357,294.151 C1143.029,293.578 1142.633,293.135 1142.127,292.804 C1141.601,292.491 1141.011,292.258 1140.349,292.117 C1139.671,291.988 1138.961,291.918 1138.187,291.918 C1137.672,291.918 1137.157,291.973 1136.639,292.08 C1136.123,292.204 1135.659,292.386 1135.25,292.644 C1134.82,292.927 1134.486,293.248 1134.23,293.68 C1133.947,294.092 1133.8,294.609 1133.8,295.2 C1133.8,295.777 1133.909,296.23 1134.134,296.594 C1134.353,296.907 1134.782,297.251 1135.397,297.546 C1136.064,297.812 1136.923,298.106 1138.052,298.419 C1139.168,298.725 1140.645,299.117 1142.449,299.578 C1142.793,299.658 1143.247,299.774 1143.823,299.928 C1144.389,300.065 1145.004,300.266 1145.617,300.526 C1146.279,300.771 1146.893,301.109 1147.545,301.52 C1148.146,301.931 1148.763,302.448 1149.277,303.012 C1149.805,303.626 1150.236,304.324 1150.543,305.155 C1150.874,305.998 1151.048,306.932 1151.048,308.01 C1151.048,309.333 1150.786,310.567 1150.249,311.707 C1149.769,312.837 1148.994,313.809 1147.985,314.632 C1146.955,315.468 1145.716,316.112 1144.205,316.598 C1142.716,317.066 1140.948,317.296 1138.997,317.296 C1137.4,317.296 1135.866,317.108 1134.352,316.695 C1132.851,316.291 1131.539,315.658 1130.396,314.827 C1129.266,313.979 1128.359,312.913 1127.66,311.623 C1126.981,310.319 1126.627,308.773 1126.675,307.004 L1132.853,307.004 z" fill="#676869"/>
        <path d="M1182.654,302 C1182.654,304.082 1182.248,306.033 1181.463,307.87 C1180.662,309.642 1179.581,311.236 1178.234,312.604 C1176.87,313.962 1175.297,315.001 1173.466,315.786 C1171.658,316.586 1169.718,316.967 1167.656,316.967 C1165.579,316.967 1163.638,316.586 1161.812,315.786 C1160.016,315.002 1158.419,313.963 1157.066,312.604 C1155.731,311.236 1154.661,309.642 1153.886,307.87 C1153.085,306.033 1152.706,304.082 1152.706,302 C1152.706,299.928 1153.085,297.987 1153.886,296.152 C1154.66,294.328 1155.731,292.743 1157.066,291.379 C1158.42,290.047 1160.016,288.983 1161.812,288.187 C1163.638,287.399 1165.579,287.005 1167.656,287.005 C1169.718,287.005 1171.658,287.399 1173.466,288.187 C1175.297,288.984 1176.869,290.047 1178.234,291.379 C1179.582,292.743 1180.663,294.328 1181.463,296.152 C1182.247,297.987 1182.654,299.928 1182.654,302 z M1167.655,293.135 C1166.44,293.135 1165.319,293.381 1164.225,293.836 C1163.17,294.315 1162.225,294.953 1161.438,295.777 C1160.639,296.593 1160.015,297.533 1159.524,298.594 C1159.054,299.646 1158.808,300.8 1158.808,301.999 C1158.808,303.226 1159.054,304.373 1159.524,305.432 C1160.015,306.498 1160.639,307.422 1161.438,308.233 C1162.225,309.035 1163.17,309.683 1164.225,310.147 C1165.319,310.615 1166.44,310.847 1167.655,310.847 C1168.867,310.847 1170.002,310.615 1171.056,310.147 C1172.102,309.683 1173.034,309.035 1173.832,308.233 C1174.641,307.422 1175.27,306.499 1175.725,305.432 C1176.192,304.373 1176.4,303.226 1176.4,301.999 C1176.4,300.8 1176.192,299.645 1175.725,298.594 C1175.271,297.532 1174.641,296.593 1173.832,295.777 C1173.033,294.953 1172.102,294.315 1171.056,293.836 C1170.002,293.381 1168.867,293.135 1167.655,293.135 z" fill="#676869"/>
        <path d="M1185.749,316.407 L1185.749,287.533 L1191.975,287.533 L1191.975,311.044 L1206.802,311.044 L1206.802,316.407 L1185.749,316.407 z" fill="#676869"/>
        <path d="M1235.998,305.658 C1235.998,309.577 1234.906,312.502 1232.709,314.417 C1230.52,316.326 1227.514,317.296 1223.654,317.296 C1219.711,317.296 1216.675,316.326 1214.529,314.428 C1212.404,312.543 1211.297,309.596 1211.297,305.658 L1211.297,287.658 L1217.688,287.658 L1217.688,305.658 C1217.688,306.463 1217.739,307.199 1217.896,307.962 C1218.016,308.712 1218.313,309.4 1218.743,310.007 C1219.159,310.58 1219.773,311.059 1220.523,311.414 C1221.308,311.765 1222.341,311.941 1223.655,311.941 C1225.891,311.941 1227.464,311.439 1228.324,310.42 C1229.22,309.412 1229.624,307.813 1229.624,305.658 L1229.624,287.658 L1235.999,287.658 L1235.999,305.658 z" fill="#676869"/>
        <path d="M1248.729,293.013 L1239.539,293.051 L1239.539,287.694 L1264.205,287.694 L1264.205,293.051 L1255.115,293.013 L1255.115,316.604 L1248.729,316.604 L1248.729,293.013 z" fill="#676869"/>
        <path d="M1267.851,287.658 L1274.217,287.658 L1274.217,316.603 L1267.851,316.603 L1267.851,287.658 z" fill="#676869"/>
        <path d="M1307.432,302 C1307.432,304.082 1307.039,306.033 1306.228,307.87 C1305.427,309.642 1304.37,311.236 1303.008,312.604 C1301.657,313.962 1300.061,315.001 1298.24,315.786 C1296.425,316.586 1294.495,316.967 1292.418,316.967 C1290.357,316.967 1288.416,316.586 1286.596,315.786 C1284.791,315.002 1283.205,313.963 1281.842,312.604 C1280.507,311.236 1279.434,309.642 1278.662,307.87 C1277.863,306.033 1277.482,304.082 1277.482,302 C1277.482,299.928 1277.863,297.987 1278.662,296.152 C1279.433,294.328 1280.507,292.743 1281.842,291.379 C1283.205,290.047 1284.791,288.983 1286.596,288.187 C1288.416,287.399 1290.358,287.005 1292.418,287.005 C1294.495,287.005 1296.425,287.399 1298.24,288.187 C1300.06,288.984 1301.657,290.047 1303.008,291.379 C1304.369,292.743 1305.427,294.328 1306.228,296.152 C1307.039,297.987 1307.432,299.928 1307.432,302 z M1292.418,293.135 C1291.228,293.135 1290.074,293.381 1289.004,293.836 C1287.949,294.315 1287.015,294.953 1286.191,295.777 C1285.42,296.593 1284.792,297.533 1284.3,298.594 C1283.82,299.646 1283.588,300.8 1283.588,301.999 C1283.588,303.226 1283.819,304.373 1284.3,305.432 C1284.791,306.498 1285.419,307.422 1286.191,308.233 C1287.015,309.035 1287.95,309.683 1289.004,310.147 C1290.074,310.615 1291.228,310.847 1292.418,310.847 C1293.636,310.847 1294.777,310.615 1295.838,310.147 C1296.879,309.683 1297.824,309.035 1298.609,308.233 C1299.411,307.422 1300.035,306.499 1300.489,305.432 C1300.959,304.373 1301.191,303.226 1301.191,301.999 C1301.191,300.8 1300.959,299.645 1300.489,298.594 C1300.035,297.532 1299.411,296.593 1298.609,295.777 C1297.825,294.953 1296.88,294.315 1295.838,293.836 C1294.778,293.381 1293.636,293.135 1292.418,293.135 z" fill="#676869"/>
        <path d="M1315.576,295.446 L1315.576,316.639 L1310.539,316.639 L1310.539,287.589 L1315.576,287.589 L1317.847,287.589 L1330.779,305.657 L1330.779,287.589 L1336.161,287.589 L1336.161,316.639 L1330.779,316.639 L1315.576,295.446 z" fill="#676869"/>
        <path d="M1345.817,307.004 C1345.817,307.962 1346.002,308.803 1346.359,309.473 C1346.701,310.148 1347.168,310.702 1347.734,311.109 C1348.324,311.547 1348.986,311.858 1349.773,312.04 C1350.534,312.257 1351.356,312.336 1352.229,312.336 C1352.782,312.336 1353.396,312.312 1354.034,312.22 C1354.702,312.101 1355.286,311.943 1355.887,311.648 C1356.429,311.405 1356.923,311.031 1357.275,310.554 C1357.658,310.063 1357.855,309.474 1357.855,308.726 C1357.855,307.951 1357.609,307.326 1357.115,306.834 C1356.605,306.349 1355.952,305.937 1355.154,305.616 C1354.355,305.248 1353.397,304.967 1352.377,304.744 C1351.357,304.512 1350.301,304.254 1349.27,303.952 C1348.176,303.694 1347.119,303.345 1346.113,302.958 C1345.069,302.57 1344.161,302.079 1343.334,301.452 C1342.515,300.812 1341.876,300.047 1341.372,299.118 C1340.881,298.221 1340.636,297.078 1340.636,295.727 C1340.636,294.244 1340.956,292.958 1341.583,291.862 C1342.221,290.76 1343.054,289.832 1344.073,289.119 C1345.12,288.395 1346.26,287.838 1347.552,287.5 C1348.853,287.137 1350.142,286.994 1351.455,286.994 C1352.958,286.994 1354.407,287.137 1355.816,287.485 C1357.205,287.824 1358.446,288.372 1359.513,289.119 C1360.597,289.855 1361.465,290.826 1362.095,292.031 C1362.736,293.203 1363.05,294.622 1363.05,296.306 L1356.873,296.306 C1356.836,295.426 1356.641,294.708 1356.347,294.151 C1356.014,293.578 1355.618,293.135 1355.106,292.804 C1354.588,292.491 1353.974,292.258 1353.315,292.117 C1352.624,291.988 1351.924,291.918 1351.174,291.918 C1350.655,291.918 1350.141,291.973 1349.611,292.08 C1349.109,292.204 1348.632,292.386 1348.24,292.644 C1347.806,292.927 1347.463,293.248 1347.182,293.68 C1346.923,294.092 1346.8,294.609 1346.8,295.2 C1346.8,295.777 1346.886,296.23 1347.117,296.594 C1347.315,296.907 1347.766,297.251 1348.383,297.546 C1349.037,297.812 1349.907,298.106 1351.026,298.419 C1352.131,298.725 1353.619,299.117 1355.423,299.578 C1355.753,299.658 1356.221,299.774 1356.789,299.928 C1357.363,300.065 1357.953,300.266 1358.602,300.526 C1359.243,300.771 1359.871,301.109 1360.519,301.52 C1361.136,301.931 1361.726,302.448 1362.251,303.012 C1362.769,303.626 1363.198,304.324 1363.506,305.155 C1363.863,305.998 1364.024,306.932 1364.024,308.01 C1364.024,309.333 1363.75,310.567 1363.257,311.707 C1362.735,312.837 1361.985,313.809 1360.948,314.632 C1359.944,315.468 1358.677,316.112 1357.177,316.598 C1355.679,317.066 1353.951,317.296 1351.995,317.296 C1350.374,317.296 1348.85,317.108 1347.342,316.695 C1345.818,316.291 1344.504,315.658 1343.4,314.827 C1342.241,313.979 1341.343,312.913 1340.644,311.623 C1339.945,310.319 1339.638,308.773 1339.638,307.004 L1345.817,307.004 z" fill="#676869"/>
      </g>
    </g>
  </g>
</svg>
